<svg xmlns="http://www.w3.org/2000/svg" width="206.25" viewBox="0 0 206.25 120" height="120" version="1.0"><g fill="#FE4F70"><g><g><path d="M 7.140625 -14.921875 C 9.347656 -14.921875 11.289062 -14.375 12.96875 -13.28125 L 11.546875 -10.34375 C 10.773438 -10.800781 9.945312 -11.171875 9.0625 -11.453125 C 8.175781 -11.742188 7.429688 -11.890625 6.828125 -11.890625 C 5.742188 -11.890625 5.203125 -11.53125 5.203125 -10.8125 C 5.203125 -10.351562 5.46875 -9.984375 6 -9.703125 C 6.539062 -9.421875 7.191406 -9.175781 7.953125 -8.96875 C 8.722656 -8.757812 9.488281 -8.507812 10.25 -8.21875 C 11.019531 -7.9375 11.671875 -7.472656 12.203125 -6.828125 C 12.734375 -6.179688 13 -5.367188 13 -4.390625 C 13 -2.960938 12.441406 -1.851562 11.328125 -1.0625 C 10.222656 -0.269531 8.816406 0.125 7.109375 0.125 C 5.878906 0.125 4.664062 -0.0820312 3.46875 -0.5 C 2.28125 -0.925781 1.242188 -1.503906 0.359375 -2.234375 L 1.8125 -5.125 C 2.5625 -4.476562 3.441406 -3.945312 4.453125 -3.53125 C 5.460938 -3.113281 6.359375 -2.90625 7.140625 -2.90625 C 7.742188 -2.90625 8.210938 -3.015625 8.546875 -3.234375 C 8.890625 -3.453125 9.0625 -3.769531 9.0625 -4.1875 C 9.0625 -4.601562 8.867188 -4.945312 8.484375 -5.21875 C 8.097656 -5.488281 7.613281 -5.691406 7.03125 -5.828125 C 6.457031 -5.960938 5.832031 -6.140625 5.15625 -6.359375 C 4.488281 -6.585938 3.863281 -6.832031 3.28125 -7.09375 C 2.707031 -7.363281 2.226562 -7.789062 1.84375 -8.375 C 1.457031 -8.957031 1.265625 -9.65625 1.265625 -10.46875 C 1.265625 -11.820312 1.800781 -12.898438 2.875 -13.703125 C 3.945312 -14.515625 5.367188 -14.921875 7.140625 -14.921875 Z M 7.140625 -14.921875" transform="translate(5.993 68.783)"/></g></g></g><g fill="#FE4F70"><g><g><path d="M 11.28125 -2.71875 L 4.828125 -2.71875 L 3.75 0 L -0.109375 0 L 6.265625 -14.75 L 10.125 -14.75 L 16.328125 0 L 12.328125 0 Z M 10.1875 -5.5625 L 8.078125 -11.03125 L 5.921875 -5.5625 Z M 10.1875 -5.5625" transform="translate(22.73 68.783)"/></g></g></g><g fill="#FE4F70"><g><g><path d="M 15.09375 0 L 11.78125 0 L 5 -9.078125 L 5 0 L 1.46875 0 L 1.46875 -14.75 L 4.78125 -14.75 L 11.59375 -5.65625 L 11.59375 -14.75 L 15.09375 -14.75 Z M 15.09375 0" transform="translate(42.123 68.783)"/></g></g></g><g fill="#FE4F70"><g><g><path d="M 12.421875 -11.796875 L 5.234375 -11.796875 L 5.234375 -8.390625 L 11.84375 -8.390625 L 11.84375 -5.4375 L 5.234375 -5.4375 L 5.234375 0 L 1.46875 0 L 1.46875 -14.75 L 12.421875 -14.75 Z M 12.421875 -11.796875" transform="translate(61.853 68.783)"/></g></g></g><g fill="#FE4F70"><g><g><path d="M 8.46875 -14.875 C 10.757812 -14.875 12.664062 -14.160156 14.1875 -12.734375 C 15.707031 -11.316406 16.46875 -9.535156 16.46875 -7.390625 C 16.46875 -5.242188 15.703125 -3.445312 14.171875 -2 C 12.648438 -0.550781 10.75 0.171875 8.46875 0.171875 C 6.195312 0.171875 4.300781 -0.546875 2.78125 -1.984375 C 1.257812 -3.429688 0.5 -5.234375 0.5 -7.390625 C 0.5 -9.546875 1.257812 -11.332031 2.78125 -12.75 C 4.300781 -14.164062 6.195312 -14.875 8.46875 -14.875 Z M 8.515625 -11.734375 C 7.359375 -11.734375 6.375 -11.316406 5.5625 -10.484375 C 4.75 -9.648438 4.34375 -8.613281 4.34375 -7.375 C 4.34375 -6.132812 4.753906 -5.085938 5.578125 -4.234375 C 6.398438 -3.390625 7.378906 -2.96875 8.515625 -2.96875 C 9.648438 -2.96875 10.613281 -3.390625 11.40625 -4.234375 C 12.207031 -5.085938 12.609375 -6.132812 12.609375 -7.375 C 12.609375 -8.613281 12.207031 -9.648438 11.40625 -10.484375 C 10.613281 -11.316406 9.648438 -11.734375 8.515625 -11.734375 Z M 8.515625 -11.734375" transform="translate(77.746 68.783)"/></g></g></g><g fill="#FE4F70"><g><g><path d="M 10.375 0 L 8.171875 -4.15625 L 5.234375 -4.15625 L 5.234375 0 L 1.46875 0 L 1.46875 -14.75 L 8.078125 -14.75 C 10.023438 -14.75 11.53125 -14.300781 12.59375 -13.40625 C 13.664062 -12.519531 14.203125 -11.253906 14.203125 -9.609375 C 14.203125 -7.335938 13.3125 -5.757812 11.53125 -4.875 L 14.625 0 Z M 5.234375 -7.109375 L 8.078125 -7.109375 C 8.890625 -7.109375 9.519531 -7.3125 9.96875 -7.71875 C 10.414062 -8.125 10.640625 -8.710938 10.640625 -9.484375 C 10.640625 -10.242188 10.414062 -10.816406 9.96875 -11.203125 C 9.519531 -11.597656 8.890625 -11.796875 8.078125 -11.796875 L 5.234375 -11.796875 Z M 5.234375 -7.109375" transform="translate(97.877 68.783)"/></g></g></g><g fill="#FE4F70"><g><g><path d="M 1.46875 -14.75 L 7.8125 -14.75 C 10.132812 -14.75 12.019531 -14.066406 13.46875 -12.703125 C 14.925781 -11.347656 15.65625 -9.570312 15.65625 -7.375 C 15.65625 -5.195312 14.914062 -3.421875 13.4375 -2.046875 C 11.96875 -0.679688 10.046875 0 7.671875 0 L 1.46875 0 Z M 5.234375 -11.765625 L 5.234375 -3 L 7.90625 -3 C 9.050781 -3 9.992188 -3.398438 10.734375 -4.203125 C 11.472656 -5.015625 11.84375 -6.066406 11.84375 -7.359375 C 11.84375 -8.648438 11.457031 -9.707031 10.6875 -10.53125 C 9.914062 -11.351562 8.929688 -11.765625 7.734375 -11.765625 Z M 5.234375 -11.765625" transform="translate(116.3 68.783)"/></g></g></g><g fill="#FFA387"><g><g><path d="M 6.078125 -14.0625 C 7.460938 -14.0625 8.597656 -13.722656 9.484375 -13.046875 C 10.378906 -12.378906 10.828125 -11.503906 10.828125 -10.421875 C 10.828125 -9.128906 9.953125 -7.585938 8.203125 -5.796875 L 5.375 -2.796875 L 11.234375 -2.796875 L 11.234375 0 L 0.828125 0 L 0.828125 -2.28125 L 5.796875 -7.546875 C 6.679688 -8.472656 7.125 -9.265625 7.125 -9.921875 C 7.125 -10.328125 6.984375 -10.640625 6.703125 -10.859375 C 6.429688 -11.085938 6.050781 -11.203125 5.5625 -11.203125 C 4.40625 -11.203125 3.140625 -10.613281 1.765625 -9.4375 L 0.4375 -11.96875 C 2.289062 -13.363281 4.171875 -14.0625 6.078125 -14.0625 Z M 6.078125 -14.0625" transform="translate(143.348 68.277)"/></g></g></g><g fill="#FFA387"><g><g><path d="M 4.1875 -5.734375 L 7.125 -5.734375 L 7.125 -8.71875 L 10.40625 -8.71875 L 10.40625 -5.734375 L 12.296875 -5.734375 L 12.296875 -3.0625 L 10.40625 -3.0625 L 10.40625 0 L 7.125 0 L 7.125 -3.0625 L 0.53125 -3.0625 L 0.53125 -5.421875 L 4.921875 -13.90625 L 8.328125 -13.90625 Z M 4.1875 -5.734375" transform="translate(158.247 68.277)"/></g></g></g><g fill="#FE4F70"><g><g><path d="M 2.171875 2.203125 L -0.71875 2.203125 L 5.703125 -16.109375 L 8.578125 -16.109375 Z M 2.171875 2.203125" transform="translate(175.134 68.277)"/></g></g></g><g fill="#FFA387"><g><g><path d="M 11.484375 -11.5 L 6.359375 0 L 2.625 0 L 7.59375 -11.09375 L 3.75 -11.09375 L 3.75 -9.15625 L 0.65625 -9.15625 L 0.65625 -13.90625 L 11.484375 -13.90625 Z M 11.484375 -11.5" transform="translate(188.248 68.277)"/></g></g></g></svg>