<svg xmlns="http://www.w3.org/2000/svg" width="262.5" viewBox="0 0 262.5 120" height="120" version="1.0"><g fill="#FE4F70"><g><g><path d="M 9.15625 -19.140625 C 11.988281 -19.140625 14.476562 -18.4375 16.625 -17.03125 L 14.8125 -13.265625 C 13.820312 -13.847656 12.757812 -14.320312 11.625 -14.6875 C 10.488281 -15.0625 9.535156 -15.25 8.765625 -15.25 C 7.367188 -15.25 6.671875 -14.785156 6.671875 -13.859375 C 6.671875 -13.265625 7.015625 -12.785156 7.703125 -12.421875 C 8.390625 -12.066406 9.222656 -11.757812 10.203125 -11.5 C 11.179688 -11.238281 12.160156 -10.921875 13.140625 -10.546875 C 14.128906 -10.179688 14.960938 -9.582031 15.640625 -8.75 C 16.328125 -7.925781 16.671875 -6.882812 16.671875 -5.625 C 16.671875 -3.800781 15.957031 -2.378906 14.53125 -1.359375 C 13.113281 -0.347656 11.304688 0.15625 9.109375 0.15625 C 7.535156 0.15625 5.984375 -0.109375 4.453125 -0.640625 C 2.921875 -1.179688 1.585938 -1.921875 0.453125 -2.859375 L 2.328125 -6.5625 C 3.273438 -5.738281 4.398438 -5.0625 5.703125 -4.53125 C 7.003906 -4 8.15625 -3.734375 9.15625 -3.734375 C 9.9375 -3.734375 10.539062 -3.867188 10.96875 -4.140625 C 11.40625 -4.421875 11.625 -4.832031 11.625 -5.375 C 11.625 -5.894531 11.375 -6.332031 10.875 -6.6875 C 10.382812 -7.039062 9.769531 -7.300781 9.03125 -7.46875 C 8.289062 -7.644531 7.488281 -7.875 6.625 -8.15625 C 5.757812 -8.445312 4.957031 -8.765625 4.21875 -9.109375 C 3.476562 -9.453125 2.859375 -9.992188 2.359375 -10.734375 C 1.867188 -11.484375 1.625 -12.382812 1.625 -13.4375 C 1.625 -15.164062 2.3125 -16.546875 3.6875 -17.578125 C 5.0625 -18.617188 6.882812 -19.140625 9.15625 -19.140625 Z M 9.15625 -19.140625" transform="translate(7.164 71.378)"/></g></g></g><g fill="#FE4F70"><g><g><path d="M 14.46875 -3.484375 L 6.1875 -3.484375 L 4.8125 0 L -0.140625 0 L 8.03125 -18.921875 L 12.96875 -18.921875 L 20.953125 0 L 15.8125 0 Z M 13.0625 -7.140625 L 10.359375 -14.140625 L 7.59375 -7.140625 Z M 13.0625 -7.140625" transform="translate(28.628 71.378)"/></g></g></g><g fill="#FE4F70"><g><g><path d="M 19.359375 0 L 15.109375 0 L 6.40625 -11.65625 L 6.40625 0 L 1.890625 0 L 1.890625 -18.921875 L 6.140625 -18.921875 L 14.859375 -7.25 L 14.859375 -18.921875 L 19.359375 -18.921875 Z M 19.359375 0" transform="translate(53.498 71.378)"/></g></g></g><g fill="#FE4F70"><g><g><path d="M 15.921875 -15.140625 L 6.703125 -15.140625 L 6.703125 -10.765625 L 15.1875 -10.765625 L 15.1875 -6.96875 L 6.703125 -6.96875 L 6.703125 0 L 1.890625 0 L 1.890625 -18.921875 L 15.921875 -18.921875 Z M 15.921875 -15.140625" transform="translate(78.8 71.378)"/></g></g></g><g fill="#FE4F70"><g><g><path d="M 10.859375 -19.078125 C 13.796875 -19.078125 16.238281 -18.160156 18.1875 -16.328125 C 20.132812 -14.503906 21.109375 -12.222656 21.109375 -9.484375 C 21.109375 -6.734375 20.128906 -4.425781 18.171875 -2.5625 C 16.222656 -0.707031 13.785156 0.21875 10.859375 0.21875 C 7.941406 0.21875 5.507812 -0.703125 3.5625 -2.546875 C 1.625 -4.398438 0.65625 -6.710938 0.65625 -9.484375 C 0.65625 -12.242188 1.625 -14.53125 3.5625 -16.34375 C 5.507812 -18.164062 7.941406 -19.078125 10.859375 -19.078125 Z M 10.921875 -15.0625 C 9.441406 -15.0625 8.175781 -14.523438 7.125 -13.453125 C 6.082031 -12.378906 5.5625 -11.046875 5.5625 -9.453125 C 5.5625 -7.867188 6.085938 -6.53125 7.140625 -5.4375 C 8.203125 -4.351562 9.460938 -3.8125 10.921875 -3.8125 C 12.378906 -3.8125 13.617188 -4.351562 14.640625 -5.4375 C 15.660156 -6.53125 16.171875 -7.867188 16.171875 -9.453125 C 16.171875 -11.046875 15.660156 -12.378906 14.640625 -13.453125 C 13.617188 -14.523438 12.378906 -15.0625 10.921875 -15.0625 Z M 10.921875 -15.0625" transform="translate(99.183 71.378)"/></g></g></g><g fill="#FE4F70"><g><g><path d="M 13.296875 0 L 10.484375 -5.328125 L 6.703125 -5.328125 L 6.703125 0 L 1.890625 0 L 1.890625 -18.921875 L 10.359375 -18.921875 C 12.859375 -18.921875 14.789062 -18.347656 16.15625 -17.203125 C 17.53125 -16.054688 18.21875 -14.429688 18.21875 -12.328125 C 18.21875 -9.410156 17.070312 -7.382812 14.78125 -6.25 L 18.765625 0 Z M 6.703125 -9.109375 L 10.359375 -9.109375 C 11.398438 -9.109375 12.207031 -9.367188 12.78125 -9.890625 C 13.363281 -10.410156 13.65625 -11.164062 13.65625 -12.15625 C 13.65625 -13.132812 13.363281 -13.875 12.78125 -14.375 C 12.207031 -14.882812 11.398438 -15.140625 10.359375 -15.140625 L 6.703125 -15.140625 Z M 6.703125 -9.109375" transform="translate(124.999 71.378)"/></g></g></g><g fill="#FE4F70"><g><g><path d="M 1.890625 -18.921875 L 10.03125 -18.921875 C 13 -18.921875 15.414062 -18.046875 17.28125 -16.296875 C 19.144531 -14.546875 20.078125 -12.265625 20.078125 -9.453125 C 20.078125 -6.660156 19.128906 -4.382812 17.234375 -2.625 C 15.347656 -0.875 12.882812 0 9.84375 0 L 1.890625 0 Z M 6.703125 -15.078125 L 6.703125 -3.84375 L 10.140625 -3.84375 C 11.617188 -3.84375 12.828125 -4.359375 13.765625 -5.390625 C 14.710938 -6.429688 15.1875 -7.78125 15.1875 -9.4375 C 15.1875 -11.09375 14.691406 -12.445312 13.703125 -13.5 C 12.710938 -14.550781 11.453125 -15.078125 9.921875 -15.078125 Z M 6.703125 -15.078125" transform="translate(148.625 71.378)"/></g></g></g><g fill="#FFA387"><g><g><path d="M 7.796875 -18.03125 C 9.578125 -18.03125 11.035156 -17.597656 12.171875 -16.734375 C 13.304688 -15.878906 13.875 -14.757812 13.875 -13.375 C 13.875 -11.707031 12.753906 -9.726562 10.515625 -7.4375 L 6.90625 -3.59375 L 14.421875 -3.59375 L 14.421875 0 L 1.0625 0 L 1.0625 -2.921875 L 7.4375 -9.671875 C 8.570312 -10.867188 9.140625 -11.890625 9.140625 -12.734375 C 9.140625 -13.242188 8.960938 -13.640625 8.609375 -13.921875 C 8.253906 -14.210938 7.757812 -14.359375 7.125 -14.359375 C 5.65625 -14.359375 4.035156 -13.601562 2.265625 -12.09375 L 0.5625 -15.359375 C 2.9375 -17.140625 5.347656 -18.03125 7.796875 -18.03125 Z M 7.796875 -18.03125" transform="translate(183.313 70.729)"/></g></g></g><g fill="#FFA387"><g><g><path d="M 5.375 -7.359375 L 9.140625 -7.359375 L 9.140625 -11.1875 L 13.34375 -11.1875 L 13.34375 -7.359375 L 15.765625 -7.359375 L 15.765625 -3.921875 L 13.34375 -3.921875 L 13.34375 0 L 9.140625 0 L 9.140625 -3.921875 L 0.6875 -3.921875 L 0.6875 -6.953125 L 6.3125 -17.828125 L 10.671875 -17.828125 Z M 5.375 -7.359375" transform="translate(202.42 70.729)"/></g></g></g><g fill="#FE4F70"><g><g><path d="M 2.78125 2.828125 L -0.921875 2.828125 L 7.3125 -20.65625 L 11 -20.65625 Z M 2.78125 2.828125" transform="translate(224.076 70.729)"/></g></g></g><g fill="#FFA387"><g><g><path d="M 14.71875 -14.75 L 8.15625 0 L 3.359375 0 L 9.734375 -14.234375 L 4.8125 -14.234375 L 4.8125 -11.734375 L 0.84375 -11.734375 L 0.84375 -17.828125 L 14.71875 -17.828125 Z M 14.71875 -14.75" transform="translate(240.894 70.729)"/></g></g></g></svg>