<svg xmlns="http://www.w3.org/2000/svg" width="187.5" viewBox="0 0 187.5 30" height="30" version="1.0"><g fill="#FE4F70"><g><g><path d="M 5.859375 -12.21875 C 7.660156 -12.21875 9.25 -11.769531 10.625 -10.875 L 9.46875 -8.484375 C 8.832031 -8.847656 8.148438 -9.144531 7.421875 -9.375 C 6.703125 -9.613281 6.09375 -9.734375 5.59375 -9.734375 C 4.707031 -9.734375 4.265625 -9.441406 4.265625 -8.859375 C 4.265625 -8.472656 4.484375 -8.164062 4.921875 -7.9375 C 5.359375 -7.707031 5.890625 -7.507812 6.515625 -7.34375 C 7.140625 -7.175781 7.765625 -6.972656 8.390625 -6.734375 C 9.023438 -6.503906 9.5625 -6.125 10 -5.59375 C 10.4375 -5.0625 10.65625 -4.394531 10.65625 -3.59375 C 10.65625 -2.425781 10.195312 -1.515625 9.28125 -0.859375 C 8.375 -0.210938 7.21875 0.109375 5.8125 0.109375 C 4.8125 0.109375 3.820312 -0.0625 2.84375 -0.40625 C 1.863281 -0.757812 1.015625 -1.234375 0.296875 -1.828125 L 1.484375 -4.203125 C 2.097656 -3.671875 2.816406 -3.234375 3.640625 -2.890625 C 4.472656 -2.546875 5.210938 -2.375 5.859375 -2.375 C 6.347656 -2.375 6.726562 -2.460938 7 -2.640625 C 7.28125 -2.828125 7.421875 -3.09375 7.421875 -3.4375 C 7.421875 -3.769531 7.257812 -4.046875 6.9375 -4.265625 C 6.625 -4.492188 6.234375 -4.660156 5.765625 -4.765625 C 5.296875 -4.878906 4.785156 -5.023438 4.234375 -5.203125 C 3.679688 -5.390625 3.164062 -5.59375 2.6875 -5.8125 C 2.21875 -6.03125 1.820312 -6.378906 1.5 -6.859375 C 1.1875 -7.335938 1.03125 -7.910156 1.03125 -8.578125 C 1.03125 -9.679688 1.46875 -10.5625 2.34375 -11.21875 C 3.226562 -11.882812 4.398438 -12.21875 5.859375 -12.21875 Z M 5.859375 -12.21875" transform="translate(14.464 21.752)"/></g></g></g><g fill="#FE4F70"><g><g><path d="M 9.234375 -2.234375 L 3.953125 -2.234375 L 3.078125 0 L -0.09375 0 L 5.125 -12.078125 L 8.28125 -12.078125 L 13.375 0 L 10.09375 0 Z M 8.34375 -4.5625 L 6.609375 -9.03125 L 4.859375 -4.5625 Z M 8.34375 -4.5625" transform="translate(28.179 21.752)"/></g></g></g><g fill="#FE4F70"><g><g><path d="M 12.359375 0 L 9.65625 0 L 4.09375 -7.4375 L 4.09375 0 L 1.203125 0 L 1.203125 -12.078125 L 3.921875 -12.078125 L 9.5 -4.625 L 9.5 -12.078125 L 12.359375 -12.078125 Z M 12.359375 0" transform="translate(44.07 21.752)"/></g></g></g><g fill="#FE4F70"><g><g><path d="M 10.171875 -9.671875 L 4.28125 -9.671875 L 4.28125 -6.875 L 9.703125 -6.875 L 9.703125 -4.453125 L 4.28125 -4.453125 L 4.28125 0 L 1.203125 0 L 1.203125 -12.078125 L 10.171875 -12.078125 Z M 10.171875 -9.671875" transform="translate(60.237 21.752)"/></g></g></g><g fill="#FE4F70"><g><g><path d="M 6.9375 -12.1875 C 8.8125 -12.1875 10.367188 -11.601562 11.609375 -10.4375 C 12.859375 -9.269531 13.484375 -7.8125 13.484375 -6.0625 C 13.484375 -4.300781 12.859375 -2.828125 11.609375 -1.640625 C 10.359375 -0.453125 8.800781 0.140625 6.9375 0.140625 C 5.070312 0.140625 3.519531 -0.445312 2.28125 -1.625 C 1.039062 -2.8125 0.421875 -4.289062 0.421875 -6.0625 C 0.421875 -7.820312 1.039062 -9.28125 2.28125 -10.4375 C 3.519531 -11.601562 5.070312 -12.1875 6.9375 -12.1875 Z M 6.96875 -9.609375 C 6.03125 -9.609375 5.226562 -9.265625 4.5625 -8.578125 C 3.894531 -7.898438 3.5625 -7.054688 3.5625 -6.046875 C 3.5625 -5.035156 3.894531 -4.179688 4.5625 -3.484375 C 5.238281 -2.785156 6.039062 -2.4375 6.96875 -2.4375 C 7.90625 -2.4375 8.695312 -2.785156 9.34375 -3.484375 C 10 -4.179688 10.328125 -5.035156 10.328125 -6.046875 C 10.328125 -7.054688 10 -7.898438 9.34375 -8.578125 C 8.695312 -9.265625 7.90625 -9.609375 6.96875 -9.609375 Z M 6.96875 -9.609375" transform="translate(73.26 21.752)"/></g></g></g><g fill="#FE4F70"><g><g><path d="M 8.5 0 L 6.703125 -3.40625 L 4.28125 -3.40625 L 4.28125 0 L 1.203125 0 L 1.203125 -12.078125 L 6.609375 -12.078125 C 8.210938 -12.078125 9.453125 -11.710938 10.328125 -10.984375 C 11.203125 -10.253906 11.640625 -9.21875 11.640625 -7.875 C 11.640625 -6.007812 10.90625 -4.710938 9.4375 -3.984375 L 11.984375 0 Z M 4.28125 -5.8125 L 6.609375 -5.8125 C 7.273438 -5.8125 7.789062 -5.976562 8.15625 -6.3125 C 8.53125 -6.644531 8.71875 -7.128906 8.71875 -7.765625 C 8.71875 -8.390625 8.53125 -8.863281 8.15625 -9.1875 C 7.789062 -9.507812 7.273438 -9.671875 6.609375 -9.671875 L 4.28125 -9.671875 Z M 4.28125 -5.8125" transform="translate(89.756 21.752)"/></g></g></g><g fill="#FE4F70"><g><g><path d="M 1.203125 -12.078125 L 6.40625 -12.078125 C 8.300781 -12.078125 9.84375 -11.519531 11.03125 -10.40625 C 12.226562 -9.289062 12.828125 -7.835938 12.828125 -6.046875 C 12.828125 -4.253906 12.222656 -2.796875 11.015625 -1.671875 C 9.804688 -0.554688 8.226562 0 6.28125 0 L 1.203125 0 Z M 4.28125 -9.640625 L 4.28125 -2.453125 L 6.46875 -2.453125 C 7.414062 -2.453125 8.191406 -2.78125 8.796875 -3.4375 C 9.398438 -4.101562 9.703125 -4.960938 9.703125 -6.015625 C 9.703125 -7.078125 9.382812 -7.945312 8.75 -8.625 C 8.113281 -9.300781 7.3125 -9.640625 6.34375 -9.640625 Z M 4.28125 -9.640625" transform="translate(104.852 21.752)"/></g></g></g><g fill="#FFA387"><g><g><path d="M 4.984375 -11.53125 C 6.117188 -11.53125 7.050781 -11.253906 7.78125 -10.703125 C 8.507812 -10.148438 8.875 -9.429688 8.875 -8.546875 C 8.875 -7.484375 8.15625 -6.21875 6.71875 -4.75 L 4.40625 -2.296875 L 9.21875 -2.296875 L 9.21875 0 L 0.6875 0 L 0.6875 -1.875 L 4.75 -6.1875 C 5.476562 -6.945312 5.84375 -7.597656 5.84375 -8.140625 C 5.84375 -8.460938 5.726562 -8.71875 5.5 -8.90625 C 5.269531 -9.09375 4.957031 -9.1875 4.5625 -9.1875 C 3.613281 -9.1875 2.578125 -8.703125 1.453125 -7.734375 L 0.359375 -9.8125 C 1.878906 -10.957031 3.421875 -11.53125 4.984375 -11.53125 Z M 4.984375 -11.53125" transform="translate(127.016 21.337)"/></g></g></g><g fill="#FFA387"><g><g><path d="M 3.4375 -4.703125 L 5.84375 -4.703125 L 5.84375 -7.140625 L 8.53125 -7.140625 L 8.53125 -4.703125 L 10.078125 -4.703125 L 10.078125 -2.5 L 8.53125 -2.5 L 8.53125 0 L 5.84375 0 L 5.84375 -2.5 L 0.4375 -2.5 L 0.4375 -4.4375 L 4.03125 -11.390625 L 6.828125 -11.390625 Z M 3.4375 -4.703125" transform="translate(139.225 21.337)"/></g></g></g><g fill="#FE4F70"><g><g><path d="M 1.78125 1.8125 L -0.59375 1.8125 L 4.671875 -13.203125 L 7.03125 -13.203125 Z M 1.78125 1.8125" transform="translate(153.062 21.337)"/></g></g></g><g fill="#FFA387"><g><g><path d="M 9.40625 -9.421875 L 5.203125 0 L 2.15625 0 L 6.21875 -9.09375 L 3.078125 -9.09375 L 3.078125 -7.5 L 0.53125 -7.5 L 0.53125 -11.390625 L 9.40625 -11.390625 Z M 9.40625 -9.421875" transform="translate(163.808 21.337)"/></g></g></g></svg>